<svg xmlns="http://www.w3.org/2000/svg" viewBox="0 0 256 360">
  <defs>
    <linearGradient id="bg" x1="0" x2="0" y1="0" y2="1">
      <stop offset="0" stop-color="#dfd2ff"/>
      <stop offset="0.42" stop-color="#8b71d1"/>
      <stop offset="1" stop-color="#2e2359"/>
    </linearGradient>
    <linearGradient id="robe" x1="0" x2="0" y1="0" y2="1">
      <stop offset="0" stop-color="#7362cd"/>
      <stop offset="1" stop-color="#241947"/>
    </linearGradient>
  </defs>
  <rect width="256" height="360" rx="28" fill="url(#bg)"/>
  <rect x="8" y="8" width="240" height="344" rx="24" fill="none" stroke="#1e1f26" stroke-width="6"/>
  <path d="M128 26l58 92H70z" fill="#8e70e3"/>
  <path d="M128 48l40 62H88z" fill="#e8e0ff" fill-opacity="0.45"/>
  <circle cx="128" cy="126" r="42" fill="#d8c8ff"/>
  <ellipse cx="110" cy="126" rx="6" ry="6" fill="#eef8ff"/>
  <ellipse cx="146" cy="126" rx="6" ry="6" fill="#eef8ff"/>
  <path d="M128 134c8 0 11 14 0 20-11-6-8-20 0-20z" fill="#ad8be8"/>
  <path d="M94 172h68l-34 24z" fill="#f4f0ff"/>
  <rect x="58" y="198" width="140" height="136" rx="20" fill="url(#robe)"/>
  <path d="M128 208l24 34h-48z" fill="#e3ddff" fill-opacity="0.4"/>
</svg>
